<svg xmlns:dc="http://purl.org/dc/elements/1.1/" xmlns:cc="http://creativecommons.org/ns#" xmlns:rdf="http://www.w3.org/1999/02/22-rdf-syntax-ns#" xmlns:svg="http://www.w3.org/2000/svg" xmlns="http://www.w3.org/2000/svg" xmlns:sodipodi="http://sodipodi.sourceforge.net/DTD/sodipodi-0.dtd" xmlns:inkscape="http://www.inkscape.org/namespaces/inkscape" viewBox="0 0 32 40.00000125" version="1.1" x="0px" y="0px"><g transform="translate(0,-1020.3622)"><path style="color:#000000;font-style:normal;font-variant:normal;font-weight:normal;font-stretch:normal;font-size:medium;line-height:normal;font-family:sans-serif;text-indent:0;text-align:start;text-decoration:none;text-decoration-line:none;text-decoration-style:solid;text-decoration-color:#000000;letter-spacing:normal;word-spacing:normal;text-transform:none;direction:ltr;block-progression:tb;writing-mode:lr-tb;baseline-shift:baseline;text-anchor:start;white-space:normal;clip-rule:nonzero;display:inline;overflow:visible;visibility:visible;opacity:1;isolation:auto;mix-blend-mode:normal;color-interpolation:sRGB;color-interpolation-filters:linearRGB;solid-color:#000000;solid-opacity:1;fill:#000000;fill-opacity:1;fill-rule:evenodd;stroke:none;stroke-width:1px;stroke-linecap:butt;stroke-linejoin:miter;stroke-miterlimit:4;stroke-dasharray:none;stroke-dashoffset:0;stroke-opacity:1;color-rendering:auto;image-rendering:auto;shape-rendering:auto;text-rendering:auto;enable-background:accumulate" d="m 14.226562,1021.8848 c -3.490291,0.889 -5.5951256,4.4118 -7.4355464,7.1582 -3.1212548,4.6576 -4.9824679,10.1167 -6.2363281,15.5234 -0.27102103,1.1687 -0.95353693,2.7222 -0.23632812,4.1172 0.58023692,1.1287 1.87449082,1.4849 2.81250002,1.7852 1.9798386,0.6338 4.0548414,0.4291 5.9628906,0.4433 3.676247,0.027 7.414838,0 11.085938,-0.6367 3.266607,-0.5699 7.098196,-0.7365 9.890624,-2.9688 0.475018,-0.3797 1.011192,-0.8801 1.40625,-1.4726 0.395059,-0.5925 0.667943,-1.3227 0.441407,-2.0684 -1.307774,-4.3051 -3.744104,-9.7076 -6.765625,-13.916 -1.900051,-2.6463 -4.159971,-5.2586 -7.050782,-6.9336 -1.062951,-0.6159 -2.443118,-1.396 -3.875,-1.0312 z m 0.246094,0.9687 c 0.917299,-0.2336 2.095038,0.3287 3.128906,0.9277 2.69479,1.5615 4.876112,4.0569 6.738282,6.6504 2.932858,4.0849 5.346387,9.4288 6.621094,13.625 0.107083,0.3525 -0.01193,0.766 -0.316407,1.2227 -0.304476,0.4567 -0.774903,0.9084 -1.197265,1.2461 -2.454412,1.9621 -6.084421,2.1803 -9.439454,2.7656 -3.56212,0.6198 -7.24181,0.6481 -10.9082026,0.6211 -1.9768246,-0.015 -3.9444746,0.156 -5.6640625,-0.3945 -0.9378709,-0.3002 -1.9092926,-0.6701 -2.2285157,-1.291 -0.43719114,-0.8504 0.023087,-2.1435 0.3222657,-3.4336 1.2380797,-5.3387 3.0696517,-10.6836 6.0917969,-15.1934 1.8578192,-2.7724 3.8967732,-5.9935 6.8515622,-6.7461 z"/><path style="color:#000000;font-style:normal;font-variant:normal;font-weight:normal;font-stretch:normal;font-size:medium;line-height:normal;font-family:sans-serif;text-indent:0;text-align:start;text-decoration:none;text-decoration-line:none;text-decoration-style:solid;text-decoration-color:#000000;letter-spacing:normal;word-spacing:normal;text-transform:none;direction:ltr;block-progression:tb;writing-mode:lr-tb;baseline-shift:baseline;text-anchor:start;white-space:normal;clip-rule:nonzero;display:inline;overflow:visible;visibility:visible;opacity:1;isolation:auto;mix-blend-mode:normal;color-interpolation:sRGB;color-interpolation-filters:linearRGB;solid-color:#000000;solid-opacity:1;fill:#000000;fill-opacity:1;fill-rule:evenodd;stroke:none;stroke-width:0.25;stroke-linecap:round;stroke-linejoin:round;stroke-miterlimit:4;stroke-dasharray:none;stroke-dashoffset:0;stroke-opacity:1;color-rendering:auto;image-rendering:auto;shape-rendering:auto;text-rendering:auto;enable-background:accumulate" d="m 6.0625,1040.6562 a 0.1250125,0.1250125 0 0 0 -0.1035156,0.092 l -1.1757813,4.2559 a 0.12556248,0.12556248 0 1 0 0.2421875,0.066 l 1.1738282,-4.2558 A 0.1250125,0.1250125 0 0 0 6.0625,1040.6562 Z"/><path style="color:#000000;font-style:normal;font-variant:normal;font-weight:normal;font-stretch:normal;font-size:medium;line-height:normal;font-family:sans-serif;text-indent:0;text-align:start;text-decoration:none;text-decoration-line:none;text-decoration-style:solid;text-decoration-color:#000000;letter-spacing:normal;word-spacing:normal;text-transform:none;direction:ltr;block-progression:tb;writing-mode:lr-tb;baseline-shift:baseline;text-anchor:start;white-space:normal;clip-rule:nonzero;display:inline;overflow:visible;visibility:visible;opacity:1;isolation:auto;mix-blend-mode:normal;color-interpolation:sRGB;color-interpolation-filters:linearRGB;solid-color:#000000;solid-opacity:1;fill:#000000;fill-opacity:1;fill-rule:evenodd;stroke:none;stroke-width:0.25;stroke-linecap:round;stroke-linejoin:round;stroke-miterlimit:4;stroke-dasharray:none;stroke-dashoffset:0;stroke-opacity:1;color-rendering:auto;image-rendering:auto;shape-rendering:auto;text-rendering:auto;enable-background:accumulate" d="m 6.8164062,1043.002 a 0.1250125,0.1250125 0 0 0 -0.1210937,0.088 l -1.46875,4.3282 a 0.1250125,0.1250125 0 1 0 0.2363281,0.08 l 1.46875,-4.3281 a 0.1250125,0.1250125 0 0 0 -0.1152344,-0.1679 z"/><path style="color:#000000;font-style:normal;font-variant:normal;font-weight:normal;font-stretch:normal;font-size:medium;line-height:normal;font-family:sans-serif;text-indent:0;text-align:start;text-decoration:none;text-decoration-line:none;text-decoration-style:solid;text-decoration-color:#000000;letter-spacing:normal;word-spacing:normal;text-transform:none;direction:ltr;block-progression:tb;writing-mode:lr-tb;baseline-shift:baseline;text-anchor:start;white-space:normal;clip-rule:nonzero;display:inline;overflow:visible;visibility:visible;opacity:1;isolation:auto;mix-blend-mode:normal;color-interpolation:sRGB;color-interpolation-filters:linearRGB;solid-color:#000000;solid-opacity:1;fill:#000000;fill-opacity:1;fill-rule:evenodd;stroke:none;stroke-width:0.25;stroke-linecap:round;stroke-linejoin:round;stroke-miterlimit:4;stroke-dasharray:none;stroke-dashoffset:0;stroke-opacity:1;color-rendering:auto;image-rendering:auto;shape-rendering:auto;text-rendering:auto;enable-background:accumulate" d="m 8.1269531,1044.8359 a 0.1250125,0.1250125 0 0 0 -0.109375,0.086 l -1.3945312,3.9609 a 0.1250125,0.1250125 0 1 0 0.234375,0.084 l 1.3964843,-3.9629 a 0.1250125,0.1250125 0 0 0 -0.1269531,-0.168 z"/><path style="color:#000000;font-style:normal;font-variant:normal;font-weight:normal;font-stretch:normal;font-size:medium;line-height:normal;font-family:sans-serif;text-indent:0;text-align:start;text-decoration:none;text-decoration-line:none;text-decoration-style:solid;text-decoration-color:#000000;letter-spacing:normal;word-spacing:normal;text-transform:none;direction:ltr;block-progression:tb;writing-mode:lr-tb;baseline-shift:baseline;text-anchor:start;white-space:normal;clip-rule:nonzero;display:inline;overflow:visible;visibility:visible;opacity:1;isolation:auto;mix-blend-mode:normal;color-interpolation:sRGB;color-interpolation-filters:linearRGB;solid-color:#000000;solid-opacity:1;fill:#000000;fill-opacity:1;fill-rule:evenodd;stroke:none;stroke-width:0.25;stroke-linecap:round;stroke-linejoin:round;stroke-miterlimit:4;stroke-dasharray:none;stroke-dashoffset:0;stroke-opacity:1;color-rendering:auto;image-rendering:auto;shape-rendering:auto;text-rendering:auto;enable-background:accumulate" d="m 9.296875,1046.8906 a 0.1250125,0.1250125 0 0 0 -0.1015625,0.078 l -1.3945313,3.375 a 0.1250125,0.1250125 0 1 0 0.2304688,0.096 l 1.3964844,-3.375 a 0.1250125,0.1250125 0 0 0 -0.1308594,-0.1739 z"/><path style="color:#000000;font-style:normal;font-variant:normal;font-weight:normal;font-stretch:normal;font-size:medium;line-height:normal;font-family:sans-serif;text-indent:0;text-align:start;text-decoration:none;text-decoration-line:none;text-decoration-style:solid;text-decoration-color:#000000;letter-spacing:normal;word-spacing:normal;text-transform:none;direction:ltr;block-progression:tb;writing-mode:lr-tb;baseline-shift:baseline;text-anchor:start;white-space:normal;clip-rule:nonzero;display:inline;overflow:visible;visibility:visible;opacity:1;isolation:auto;mix-blend-mode:normal;color-interpolation:sRGB;color-interpolation-filters:linearRGB;solid-color:#000000;solid-opacity:1;fill:#000000;fill-opacity:1;fill-rule:evenodd;stroke:none;stroke-width:0.25;stroke-linecap:round;stroke-linejoin:round;stroke-miterlimit:4;stroke-dasharray:none;stroke-dashoffset:0;stroke-opacity:1;color-rendering:auto;image-rendering:auto;shape-rendering:auto;text-rendering:auto;enable-background:accumulate" d="m 10.849609,1047.9902 a 0.1250125,0.1250125 0 0 0 -0.107421,0.072 l -1.1757818,2.3457 a 0.12578382,0.12578382 0 1 0 0.2246094,0.1133 l 1.1757814,-2.3477 a 0.1250125,0.1250125 0 0 0 -0.117188,-0.1836 z"/><path style="color:#000000;font-style:normal;font-variant:normal;font-weight:normal;font-stretch:normal;font-size:medium;line-height:normal;font-family:sans-serif;text-indent:0;text-align:start;text-decoration:none;text-decoration-line:none;text-decoration-style:solid;text-decoration-color:#000000;letter-spacing:normal;word-spacing:normal;text-transform:none;direction:ltr;block-progression:tb;writing-mode:lr-tb;baseline-shift:baseline;text-anchor:start;white-space:normal;clip-rule:nonzero;display:inline;overflow:visible;visibility:visible;opacity:1;isolation:auto;mix-blend-mode:normal;color-interpolation:sRGB;color-interpolation-filters:linearRGB;solid-color:#000000;solid-opacity:1;fill:#000000;fill-opacity:1;fill-rule:evenodd;stroke:none;stroke-width:0.25;stroke-linecap:round;stroke-linejoin:round;stroke-miterlimit:4;stroke-dasharray:none;stroke-dashoffset:0;stroke-opacity:1;color-rendering:auto;image-rendering:auto;shape-rendering:auto;text-rendering:auto;enable-background:accumulate" d="m 28.037109,1037.6543 a 0.1250125,0.1250125 0 0 0 -0.09375,0.07 l -4.408203,8.6543 a 0.1250125,0.1250125 0 1 0 0.222656,0.1133 l 4.408204,-8.6543 a 0.1250125,0.1250125 0 0 0 -0.128907,-0.1836 z"/><path style="color:#000000;font-style:normal;font-variant:normal;font-weight:normal;font-stretch:normal;font-size:medium;line-height:normal;font-family:sans-serif;text-indent:0;text-align:start;text-decoration:none;text-decoration-line:none;text-decoration-style:solid;text-decoration-color:#000000;letter-spacing:normal;word-spacing:normal;text-transform:none;direction:ltr;block-progression:tb;writing-mode:lr-tb;baseline-shift:baseline;text-anchor:start;white-space:normal;clip-rule:nonzero;display:inline;overflow:visible;visibility:visible;opacity:1;isolation:auto;mix-blend-mode:normal;color-interpolation:sRGB;color-interpolation-filters:linearRGB;solid-color:#000000;solid-opacity:1;fill:#000000;fill-opacity:1;fill-rule:evenodd;stroke:none;stroke-width:1px;stroke-linecap:round;stroke-linejoin:round;stroke-miterlimit:4;stroke-dasharray:none;stroke-dashoffset:0;stroke-opacity:1;color-rendering:auto;image-rendering:auto;shape-rendering:auto;text-rendering:auto;enable-background:accumulate" d="m 24.365234,1033.293 a 0.50005,0.50005 0 0 0 -0.40625,0.1933 l -5.40625,6.959 -4.441406,0.2481 -6.2343749,-5.7442 a 0.50005,0.50005 0 0 0 -0.7011719,0.022 l -1.3964843,1.4688 a 0.50005,0.50005 0 0 0 -0.025391,0.6601 l 4.3261718,5.3223 1.416016,7.7265 a 0.50049293,0.50049293 0 1 0 0.984375,-0.1816 l -1.439453,-7.8516 a 0.50005,0.50005 0 0 0 -0.105469,-0.2246 l -4.1289064,-5.082 0.7539063,-0.791 6.0292971,5.5527 a 0.50005,0.50005 0 0 0 0.367187,0.1328 l 4.878907,-0.2734 a 0.50005,0.50005 0 0 0 0.367187,-0.1914 l 5.25,-6.7578 0.867187,0.6211 -3.630859,5.5918 a 0.50005,0.50005 0 0 0 -0.08203,0.2675 l -0.109375,8.4571 a 0.50005,0.50005 0 1 0 1,0.014 l 0.107422,-8.3144 3.814453,-5.8711 a 0.50005,0.50005 0 0 0 -0.128906,-0.6777 l -1.644532,-1.1817 a 0.50005,0.50005 0 0 0 -0.28125,-0.094 z"/><path style="color:#000000;font-style:normal;font-variant:normal;font-weight:normal;font-stretch:normal;font-size:medium;line-height:normal;font-family:sans-serif;text-indent:0;text-align:start;text-decoration:none;text-decoration-line:none;text-decoration-style:solid;text-decoration-color:#000000;letter-spacing:normal;word-spacing:normal;text-transform:none;direction:ltr;block-progression:tb;writing-mode:lr-tb;baseline-shift:baseline;text-anchor:start;white-space:normal;clip-rule:nonzero;display:inline;overflow:visible;visibility:visible;opacity:1;isolation:auto;mix-blend-mode:normal;color-interpolation:sRGB;color-interpolation-filters:linearRGB;solid-color:#000000;solid-opacity:1;fill:#000000;fill-opacity:1;fill-rule:evenodd;stroke:none;stroke-width:1px;stroke-linecap:butt;stroke-linejoin:miter;stroke-miterlimit:4;stroke-dasharray:none;stroke-dashoffset:0;stroke-opacity:1;color-rendering:auto;image-rendering:auto;shape-rendering:auto;text-rendering:auto;enable-background:accumulate" d="m 17.197266,1030.5996 c -0.886154,-0.1694 -1.793497,0.01 -2.576172,0.3223 -0.706207,0.2862 -1.368971,0.7547 -1.841797,1.3808 -0.4057,0.5373 -0.596796,1.1784 -0.6875,1.7793 -0.09288,0.6156 -0.09761,1.298 0.134765,1.9434 0.240259,0.6672 0.623817,1.4397 1.376954,1.8555 1.005802,0.5555 2.214606,0.4903 3.216796,0.2324 1.018956,-0.2623 1.967725,-0.8699 2.632813,-1.6836 0.500891,-0.6128 0.841493,-1.4057 0.853516,-2.2305 0.01203,-0.8318 -0.278644,-1.6815 -0.822266,-2.3242 -0.585478,-0.6921 -1.437715,-1.1129 -2.287109,-1.2754 z m -0.1875,0.9824 c 0.648125,0.124 1.312956,0.469 1.710937,0.9395 0.367738,0.4347 0.594289,1.0865 0.585938,1.664 -0.008,0.5473 -0.258744,1.1609 -0.626953,1.6114 -0.520572,0.6369 -1.309758,1.1423 -2.107422,1.3476 -0.84207,0.2167 -1.823778,0.2262 -2.484375,-0.1386 -0.391664,-0.2163 -0.717821,-0.7591 -0.919922,-1.3204 -0.152308,-0.423 -0.16244,-0.948 -0.08594,-1.455 0.0745,-0.4935 0.234274,-0.9775 0.496094,-1.3243 0.344054,-0.4556 0.866456,-0.833 1.417969,-1.0566 0.646905,-0.2622 1.384365,-0.3879 2.013672,-0.2676 z"/><path style="color:#000000;font-style:normal;font-variant:normal;font-weight:normal;font-stretch:normal;font-size:medium;line-height:normal;font-family:sans-serif;text-indent:0;text-align:start;text-decoration:none;text-decoration-line:none;text-decoration-style:solid;text-decoration-color:#000000;letter-spacing:normal;word-spacing:normal;text-transform:none;direction:ltr;block-progression:tb;writing-mode:lr-tb;baseline-shift:baseline;text-anchor:start;white-space:normal;clip-rule:nonzero;display:inline;overflow:visible;visibility:visible;opacity:1;isolation:auto;mix-blend-mode:normal;color-interpolation:sRGB;color-interpolation-filters:linearRGB;solid-color:#000000;solid-opacity:1;fill:#000000;fill-opacity:1;fill-rule:evenodd;stroke:none;stroke-width:0.25;stroke-linecap:round;stroke-linejoin:round;stroke-miterlimit:4;stroke-dasharray:none;stroke-dashoffset:0;stroke-opacity:1;color-rendering:auto;image-rendering:auto;shape-rendering:auto;text-rendering:auto;enable-background:accumulate" d="m 13.871094,1033.0332 a 0.1250125,0.1250125 0 0 0 -0.103516,0.074 l -1.021484,2.2735 a 0.12502135,0.12502135 0 0 0 0.228515,0.1015 l 1.021485,-2.2715 a 0.1250125,0.1250125 0 0 0 -0.125,-0.1777 z"/><path style="color:#000000;font-style:normal;font-variant:normal;font-weight:normal;font-stretch:normal;font-size:medium;line-height:normal;font-family:sans-serif;text-indent:0;text-align:start;text-decoration:none;text-decoration-line:none;text-decoration-style:solid;text-decoration-color:#000000;letter-spacing:normal;word-spacing:normal;text-transform:none;direction:ltr;block-progression:tb;writing-mode:lr-tb;baseline-shift:baseline;text-anchor:start;white-space:normal;clip-rule:nonzero;display:inline;overflow:visible;visibility:visible;opacity:1;isolation:auto;mix-blend-mode:normal;color-interpolation:sRGB;color-interpolation-filters:linearRGB;solid-color:#000000;solid-opacity:1;fill:#000000;fill-opacity:1;fill-rule:evenodd;stroke:none;stroke-width:0.25;stroke-linecap:round;stroke-linejoin:round;stroke-miterlimit:4;stroke-dasharray:none;stroke-dashoffset:0;stroke-opacity:1;color-rendering:auto;image-rendering:auto;shape-rendering:auto;text-rendering:auto;enable-background:accumulate" d="m 14.263672,1034.1035 a 0.1250125,0.1250125 0 0 0 -0.103516,0.076 l -0.941406,2.0879 a 0.1250125,0.1250125 0 1 0 0.226562,0.1035 l 0.94336,-2.0899 a 0.1250125,0.1250125 0 0 0 -0.125,-0.1777 z"/><path style="color:#000000;font-style:normal;font-variant:normal;font-weight:normal;font-stretch:normal;font-size:medium;line-height:normal;font-family:sans-serif;text-indent:0;text-align:start;text-decoration:none;text-decoration-line:none;text-decoration-style:solid;text-decoration-color:#000000;letter-spacing:normal;word-spacing:normal;text-transform:none;direction:ltr;block-progression:tb;writing-mode:lr-tb;baseline-shift:baseline;text-anchor:start;white-space:normal;clip-rule:nonzero;display:inline;overflow:visible;visibility:visible;opacity:1;isolation:auto;mix-blend-mode:normal;color-interpolation:sRGB;color-interpolation-filters:linearRGB;solid-color:#000000;solid-opacity:1;fill:#000000;fill-opacity:1;fill-rule:evenodd;stroke:none;stroke-width:0.25;stroke-linecap:round;stroke-linejoin:round;stroke-miterlimit:4;stroke-dasharray:none;stroke-dashoffset:0;stroke-opacity:1;color-rendering:auto;image-rendering:auto;shape-rendering:auto;text-rendering:auto;enable-background:accumulate" d="m 14.876953,1034.6777 a 0.1250125,0.1250125 0 0 0 -0.115234,0.078 l -0.890625,2.0625 a 0.12553452,0.12553452 0 0 0 0.230468,0.1 l 0.890626,-2.0645 a 0.1250125,0.1250125 0 0 0 -0.115235,-0.1758 z"/><path style="color:#000000;font-style:normal;font-variant:normal;font-weight:normal;font-stretch:normal;font-size:medium;line-height:normal;font-family:sans-serif;text-indent:0;text-align:start;text-decoration:none;text-decoration-line:none;text-decoration-style:solid;text-decoration-color:#000000;letter-spacing:normal;word-spacing:normal;text-transform:none;direction:ltr;block-progression:tb;writing-mode:lr-tb;baseline-shift:baseline;text-anchor:start;white-space:normal;clip-rule:nonzero;display:inline;overflow:visible;visibility:visible;opacity:1;isolation:auto;mix-blend-mode:normal;color-interpolation:sRGB;color-interpolation-filters:linearRGB;solid-color:#000000;solid-opacity:1;fill:#000000;fill-opacity:1;fill-rule:evenodd;stroke:none;stroke-width:0.25;stroke-linecap:round;stroke-linejoin:round;stroke-miterlimit:4;stroke-dasharray:none;stroke-dashoffset:0;stroke-opacity:1;color-rendering:auto;image-rendering:auto;shape-rendering:auto;text-rendering:auto;enable-background:accumulate" d="m 15.542969,1035.3574 a 0.1250125,0.1250125 0 0 0 -0.101563,0.078 l -0.626953,1.4883 a 0.12516115,0.12516115 0 1 0 0.230469,0.098 l 0.626953,-1.4883 a 0.1250125,0.1250125 0 0 0 -0.128906,-0.1758 z"/><path style="color:#000000;font-style:normal;font-variant:normal;font-weight:normal;font-stretch:normal;font-size:medium;line-height:normal;font-family:sans-serif;text-indent:0;text-align:start;text-decoration:none;text-decoration-line:none;text-decoration-style:solid;text-decoration-color:#000000;letter-spacing:normal;word-spacing:normal;text-transform:none;direction:ltr;block-progression:tb;writing-mode:lr-tb;baseline-shift:baseline;text-anchor:start;white-space:normal;clip-rule:nonzero;display:inline;overflow:visible;visibility:visible;opacity:1;isolation:auto;mix-blend-mode:normal;color-interpolation:sRGB;color-interpolation-filters:linearRGB;solid-color:#000000;solid-opacity:1;fill:#000000;fill-opacity:1;fill-rule:evenodd;stroke:none;stroke-width:0.25;stroke-linecap:round;stroke-linejoin:round;stroke-miterlimit:4;stroke-dasharray:none;stroke-dashoffset:0;stroke-opacity:1;color-rendering:auto;image-rendering:auto;shape-rendering:auto;text-rendering:auto;enable-background:accumulate" d="m 16.419922,1035.6699 a 0.1250125,0.1250125 0 0 0 -0.119141,0.092 l -0.443359,1.4629 a 0.1250125,0.1250125 0 1 0 0.238281,0.072 l 0.445313,-1.4629 a 0.1250125,0.1250125 0 0 0 -0.121094,-0.1641 z"/></g><text x="0" y="47.000001" fill="#000000" font-size="5px" font-weight="bold" font-family="'Helvetica Neue', Helvetica, Arial-Unicode, Arial, Sans-serif">Created by P Thanga Vignesh</text><text x="0" y="52.000001" fill="#000000" font-size="5px" font-weight="bold" font-family="'Helvetica Neue', Helvetica, Arial-Unicode, Arial, Sans-serif">from the Noun Project</text></svg>
